/* XPM */
static char *_5e6cb663c954f53d479ace960d3415266y8ryFMjvDm5Arp[] = {
/* columns rows colors chars-per-pixel */
"32 32 96 2 ",
"   c #C22424",
".  c black",
"X  c white",
"o  c black",
"O  c #171C31",
"+  c #B6BEC8",
"@  c #8F9AB0",
"#  c #677598",
"$  c #414B66",
"%  c #242A3D",
"&  c #6FB151",
"*  c #53A03B",
"=  c #347B2C",
"-  c #114517",
";  c #082B0C",
":  c #8DC39A",
">  c #69B57F",
",  c #509B66",
"<  c #296640",
"1  c #163C2B",
"2  c #C8B3A2",
"3  c #9D7658",
"4  c #755338",
"5  c #503625",
"6  c #342319",
"7  c #C8B3A2",
"8  c #A68364",
"9  c black",
"0  c black",
"q  c #21110D",
"w  c #65B1B8",
"e  c #4D8AB3",
"r  c #425B9E",
"t  c #33418A",
"y  c #1D235D",
"u  c #E1DDD6",
"i  c black",
"p  c black",
"a  c black",
"s  c black",
"d  c #E9CE7C",
"f  c black",
"g  c #D77728",
"h  c #BE5B1E",
"j  c black",
"k  c black",
"l  c #BC4952",
"z  c #9E2E46",
"x  c #71193C",
"c  c black",
"v  c black",
"b  c black",
"n  c black",
"m  c black",
"M  c black",
"N  c black",
"B  c black",
"V  c black",
"C  c black",
"Z  c black",
"A  c black",
"S  c black",
"D  c black",
"F  c black",
"G  c black",
"H  c black",
"J  c black",
"K  c black",
"L  c black",
"P  c black",
"I  c black",
"U  c black",
"Y  c black",
"T  c black",
"R  c black",
"E  c black",
"W  c black",
"Q  c black",
"!  c black",
"~  c black",
"^  c black",
"/  c black",
"(  c black",
")  c black",
"_  c black",
"`  c black",
"'  c black",
"]  c black",
"[  c black",
"{  c black",
"}  c black",
"|  c black",
" . c black",
".. c black",
"X. c black",
"o. c black",
/* pixels */
", , , , , , , , , , , , , , , , , , , , , , , , , , , , , , , , ",
", , , , , , , , , , , , , , , , , , , , , , , , , , , , , , , , ",
", , , , < 1 - - - - 1 1 1 1 1 1 1 1 1 1 1 1 - - - - 1 < , , , , ",
", , , < 6 q O % % O q q q q q q q q q q q q O % % O q 6 < , , , ",
", , < 6 6 5 $ r r $ 5 6 6 6 6 6 6 6 6 6 6 5 $ r r $ 5 6 6 < , , ",
", , 1 q 6 4 # @ @ # 4 5 5 5 5 5 5 5 5 5 5 4 # @ @ # 4 6 q 1 , , ",
", , 1 q 5 3 @ + + @ 3 5 4 4 4 4 4 4 4 4 5 3 @ + + @ 3 5 q 1 , , ",
", , 1 q 5 3 + + + + 3 5 4 4 4 4 4 4 4 4 5 3 + + + + 3 5 q 1 , , ",
", , 1 q 5 3 + + + + 3 5 4 4 4 4 4 4 4 4 5 3 + + + + 3 5 q 1 , , ",
", , 1 q 5 3 + + + + 3 5 4 4 4 4 4 4 4 4 5 3 + + + + 3 5 q 1 , , ",
", , 1 q 5 3 + + + + 3 5 4 4 4 4 4 4 4 4 5 3 + + + + 3 5 q 1 , , ",
", , 1 q 5 3 + + + + 3 5 4 4 4 4 4 4 4 4 5 3 + + + + 3 5 q 1 , , ",
", , 1 q 5 3 + + + + 3 5 4 4 4 4 4 4 4 4 5 3 + + + + 3 5 q 1 , , ",
", , 1 q 5 3 @ + + @ 3 5 5 4 4 4 4 4 4 5 5 3 @ + + @ 3 5 q 1 , , ",
", , 1 q 6 4 # @ @ # 4 6 6 6 6 6 6 6 6 6 6 4 # @ @ # 4 6 q 1 , , ",
", , 1 q 5 $ # # # # $ $ 4 3 # # # # 3 4 $ $ # # # # $ 5 q 1 , , ",
", , - % # # # # # # # # @ + + + + + + @ # # # # # # # # % - , , ",
", , - % # # # # # # # # @ + + + + + + @ # # # # # # # # % - , , ",
", , 1 q % $ $ $ $ $ $ $ # # # $ $ # # # $ $ $ $ $ $ $ % q 1 , , ",
", , 1 q q 6 $ $ $ $ 6 6 $ $ O . . O $ $ 6 6 $ $ $ $ 6 q q 1 , , ",
"< < 1 q q % # # # # 5 5 # r % . . % r # 5 5 # # # # % q q 1 < < ",
"< < 1 q q $ # # # # 5 $ # # $ $ $ $ # # $ 5 # # # # $ q q 1 < < ",
"< < 1 q q $ # # # # 5 $ # # # # # # # # $ 5 # # # # $ q q 1 < < ",
"< < 6 q q $ # # # # 5 5 # # # # # # # # 5 5 # # # # $ q q 1 < < ",
"< < 6 q q $ # # # # $ 5 5 $ $ $ $ $ $ 5 5 $ # # # # $ q q 6 < < ",
"< < 1 q q $ # # # # $ 6 6 6 6 6 6 6 6 6 6 $ # # # # $ q q 1 < < ",
"< < < 1 q % # # # # $ 6 5 5 5 5 5 5 5 5 6 $ # # # # % q 1 < < < ",
"< < < < ; % # # # # $ 5 5 5 5 5 5 5 5 5 5 $ # # # # % ; < < < < ",
", , < < < < < $ $ < < < < < < < < < < < < < < $ $ < < < < < , , ",
", , < < < < < < < < < < < < < < < < < < < < < < < < < < < < , , ",
", , , , , , < < < < < < < < < < < < < < < < < < < < , , , , , , ",
", , , , , , < < < < < < < < < < < < < < < < < < < < , , , , , , "
};
