/* XPM */
static char *_e5c08ced1ba4d4deaf06f6670068ed7oZgjz5OJXCrpwVWe[] = {
/* columns rows colors chars-per-pixel */
"32 32 27 1 ",
"  c black",
". c #291F14",
"X c #6B1717",
"o c #5C3812",
"O c #40262B",
"+ c #452B2B",
"@ c #753E2D",
"# c #78523D",
"$ c #404545",
"% c #61666B",
"& c #A33333",
"* c #8F4D14",
"= c #B3751A",
"- c #94694D",
"; c #A17854",
": c #84706E",
"> c #509B66",
", c #C78F66",
"< c gray58",
"1 c #BF8F9E",
"2 c #949CA1",
"3 c #D4AB82",
"4 c #E3BFCC",
"5 c #C4C7D4",
"6 c LightGray",
"7 c #FFDFEA",
"8 c #E8F2FA",
/* pixels */
">>>>>>>>>>>>>>>>>>>>>>>>>>>>>>>>",
">>>>>>>>>>>OO:::::::OO>>>>>>>>>>",
">>>>>>>>>O:14411:14111:O>>>>>>>>",
">>>>>:111447774414444441O>>>>>>>",
">>>>>O:147741144774114441:O>>>>>",
">>>>>>O:11:1477747741::144:OO>>>",
">>>>>>>O:1147747471741:::OO>>>>>",
">>>>>>:471474:47174144O:::O>>>>>",
">>>>>:471171O:74O17:141O:1:O>>>>",
">>>>>:71O11:O1713:71:11OO:1O>>>>",
">>>>O41O:1:1O17O3O71::1:OO:1O>>>",
">>>>O1OO::1:O:4O3O41::::OOO:O>>>",
">>>>OOOO141OOO13331:O::1:O>OO>>>",
">>>>O> O14:OXX:,,,:XX<:4:O >O>>>",
">>>>>> ,:4:6XX,,,,,XX6:4:, >>>>>",
">>>>>>> :1O6&&,,,,,&&6:4: >>>>>>",
">>>>>>>>O1O6&&33333&&6O1O>>>>>>>",
">>>>>>>>O1O,333333333,O1O>>>>>>>",
">>>>>>>$O:O-,3333333,-O:O$>>>>>>",
">>>>>>.+2:O$@--,,,--@$O:2+.>>>>>",
">>>>>.+++2O52$@@@@@$25O2+++.>>>>",
">>>>>++#++25852$$$2588++###.>>>>",
">>>>.+###+.#288525882++#;;#+.>>>",
">>>>$%+#+++##+28882+#+ 552##.>>>",
">>>>$2552.+#;#+888+#; oo852+.>>>",
">>>>$%22% +#;;+585#;# =*$52+.>>>",
">>>>  oo $%255588852% **$2%$>>>>",
">>>>>   > %2588855222% $%%$>>>>>",
">>>>>>>>>> $%.++..$$$$    >>>>>>",
">>>>>>>>>>>> +##+ .. >>>>>>>>>>>",
">>>>>>>>>>>> .ooo   >>>>>>>>>>>>",
">>>>>>>>>>>>> ***>>>>>>>>>>>>>>>"
};
