/* XPM */
static char *_2067c889b844ff2aab874fb462a0bdaNHz6Kclxjbu4zTYf[] = {
/* columns rows colors chars-per-pixel */
"32 32 28 1 ",
"  c black",
". c gray8",
"X c #291F14",
"o c #6B1717",
"O c #5C3812",
"+ c #40262B",
"@ c #452B2B",
"# c #753E2D",
"$ c #78523D",
"% c #404545",
"& c #61666B",
"* c #A33333",
"= c #8F4D14",
"- c #B3751A",
"; c #94694D",
": c #A17854",
"> c #84706E",
", c #509B66",
"< c #C78F66",
"1 c gray58",
"2 c #BF8F9E",
"3 c #949CA1",
"4 c #D4AB82",
"5 c #E3BFCC",
"6 c #C4C7D4",
"7 c LightGray",
"8 c #FFDFEA",
"9 c #E8F2FA",
/* pixels */
",,,>252,+>>22+>>22>++,,,,,,,,,,,",
",,,,>258222>>25555552>+,,,,,,,,,",
",,,,+>22585255555555552+,,,,,,,,",
",,,,,+>22225588855555552,,,,,,,,",
",,,,>2225855558885522552+,,,,,,,",
",,,>5225858558528855>225>,,,,,,,",
",,>5>+558258258528255>>25>,,,,,,",
",,>2++582+285258525>222>22>+,,,,",
",,>+,+28>4>582258252>>>++++,,,,,",
",,+,,+25+4+28>225252+>>>>+,,,,,,",
",,,,,,>2+4+>2+>2>22>+>>22+,,,,,,",
",,,,,,+2<<<+o1+>2>2+++2+22+,,,,,",
",,,,,,,+<<<oo7;>5>>.+>2>++,,,,,,",
",,,,,,,+<<<**7<>52+<+2+>+,,,,,,,",
",,,,,,, 444**74252+.+2+>,,,,,,,,",
",,,,,,, 444444425>++>> +,,,,,,,,",
",,,,,,, ;44444452>++> , ,,,,,,,,",
",,,,,,,, ;<44442>+663&%,,,,,,,,,",
",,,,,,,,,  ###3>+96663&%,,,,,,,,",
",,,,,,,,,,36999+96&&%&&%,,,,,,,,",
",,,,,,,,,&69963&%X@@XX% ,,,,,,,,",
",,,,,,,,,&6&XX&X@$$$@X ,,,,,,,,,",
",,,,,,,,,366XX66@::$$XX ,,,,,,,,",
",,,,,,,,%69&--99@::$$XX ,,,,,,,,",
",,,,,,,,%69&==69@$$$@X%% ,,,,,,,",
",,,,,,,,%396  33%@@&33&% ,,,,,,,",
",,,,,,,,,%399%%%63333&% ,,,,,,,,",
",,,,,,,,,,%%399666&%XX ,,,,,,,,,",
",,,,,,,,,,,XXXXX @$$@X ,,,,,,,,,",
",,,,,,,,,,,XXXX  @XXX ,,,,,,,,,,",
",,,,,,,,,,,,,,,, O==O ,,,,,,,,,,",
",,,,,,,,,,,,,,,,,,,,,,,,,,,,,,,,"
};
