/* XPM */
static char * portal_xpm[] = {
"32 32 73 1",
" 	c None",
".	c #509B66",
"+	c #57A1D0",
"@	c #5BA3CF",
"#	c #5DA4D0",
"$	c #3584B9",
"%	c #2C7DB5",
"&	c #3381B6",
"*	c #338ECC",
"=	c #3B93CE",
"-	c #529ECE",
";	c #4296CE",
">	c #4B9ACD",
",	c #438AB7",
"'	c #3C7FAA",
")	c #1D608E",
"!	c #185986",
"~	c #175C89",
"{	c #236EA2",
"]	c #2877AD",
"^	c #2674AA",
"/	c #56A1CF",
"(	c #3690CE",
"_	c #4E98C7",
":	c #61A6CF",
"<	c #2C6E9A",
"[	c #175885",
"}	c #104D76",
"|	c #114F78",
"1	c #165682",
"2	c #216B9D",
"3	c #60A6D1",
"4	c #4187B4",
"5	c #1B5E8B",
"6	c #0E4A71",
"7	c #0C486F",
"8	c #1F699B",
"9	c #4798CC",
"0	c #559AC3",
"a	c #3477A3",
"b	c #3087C2",
"c	c #4A8EB8",
"d	c #13527B",
"e	c #1D6494",
"f	c #2B7FB8",
"g	c #3188C4",
"h	c #2F87C2",
"i	c #194F74",
"j	c #0B2F49",
"k	c #0C3857",
"l	c #0C4265",
"m	c #2879AF",
"n	c #0A2C44",
"o	c #226694",
"p	c #286A96",
"q	c #2571A5",
"r	c #408FC3",
"s	c #0B283E",
"t	c #0C3C5C",
"u	c #0C2234",
"v	c #0E1C2B",
"w	c #0B263B",
"x	c #0C466C",
"y	c #0A304B",
"z	c #2D82BB",
"A	c #164A6F",
"B	c #2874A7",
"C	c #4592C4",
"D	c #0C3653",
"E	c #4A95C5",
"F	c #3D80AB",
"G	c #4E92BB",
"H	c #367AA6",
"............+++++++@+...........",
"..........#@$%%%&%%*=-+.........",
"........;>,')!!!!!~{]^&>/.......",
".......(_:<[![}||}|[[12*>3......",
".....*;+4<5[|6676}}}|[58&9+3....",
".....=90a1![677|1^$51[[1{b>#....",
"...(=#c)5!1d6|~e{]fgh8e[~5&=@:..",
"...*=#c!!!}67deijkl2m*%1~~f=@:..",
"...*;@c!!!|76lnnnnjl1ghmo~f=+3..",
"...+_ap[{%[76lnnnnnl|5q*^!o{r>3.",
"..(#05~5]b~76lnnnsjl67e*^[[5h;33",
".*=+052g2|}7ltnuvwjtl7~f2[[5g;33",
".*(@052=276xjnwuvuwny71e)[[5h;#3",
".*(@052*877xjwvvvvvsyx1{e[[)h;33",
".((#0)2(866xjwvvvvvsjx771[[)h;3:",
".*(+0)2({}6xjwvvvvvsjx66|[!5g;::",
".*=-0){(*z[xjwvvvvvsy777|~[)h=33",
".*=:05efg(~xjwuvvvusjx|~~[~5h=33",
".*(-0)!~8q2e!Anuvwnytxe*q[[5g;33",
".*=@0)[!|6){*Bjwusjl77e*^[[)g;33",
"...#0o~[1d66~djnnnjl76e*q[!og9::",
"...;C04[[[}67lnnnnj6~fme5!]g--..",
"...*=3c~~[}66lynnjD8mfq[~~f=:3..",
"...*=3c![[d}6}eistx6|11[[[f=@:..",
"....=9EFp!![}d2o5e2|}[[[o^r>#...",
".....*93'~![}77deee|}[!~]=+3....",
"......==CGp1d|}}}77dd[8fr+#.....",
".......(>@Ho5[d[d11)e)B=-3......",
".........=>E{888o2{z*C9#........",
"...........=99999999>#..........",
"................................",
"................................"};
