/* XPM */
static char *_0083774b1854cfbd76499d3bda52ea8nhxocqMa3B01OiRI[] = {
/* columns rows colors chars-per-pixel */
"32 32 28 1 ",
"  c black",
". c gray8",
"X c #291F14",
"o c #6B1717",
"O c #5C3812",
"+ c #40262B",
"@ c #452B2B",
"# c #753E2D",
"$ c #78523D",
"% c #404545",
"& c #61666B",
"* c #A33333",
"= c #8F4D14",
"- c #B3751A",
"; c #94694D",
": c #A17854",
"> c #84706E",
", c #509B66",
"< c #C78F66",
"1 c gray58",
"2 c #BF8F9E",
"3 c #949CA1",
"4 c #D4AB82",
"5 c #E3BFCC",
"6 c #C4C7D4",
"7 c LightGray",
"8 c #FFDFEA",
"9 c #E8F2FA",
/* pixels */
",,,,,,,,,,,,,,,,,,,,,,,,,,,,,,,,",
",,,,,,,,,,,++>22>>+22>>+,252>,,,",
",,,,,,,,,+>25555552>>222852>,,,,",
",,,,,,,,+25555555555258522>+,,,,",
",,,,,,,,25555555888552222>+,,,,,",
",,,,,,,+2552255888555585222>,,,,",
",,,,,,,>522>5588258558585225>,,,",
",,,,,,>52>>552825852852855+>5>,,",
",,,,+>22>222>525852582+285++2>,,",
",,,,,++++>>>252852285>4>82+,+>,,",
",,,,,,+>>>>+252522>82+4+52+,,+,,",
",,,,,,+22>>+>22>2>+2>+4+2>,,,,,,",
",,,,,+22+2+++2>2>+1o+<<<2+,,,,,,",
",,,,,,++>2>+.>>5>;7oo<<<+,,,,,,,",
",,,,,,,+>+2+<+25><7**<<<+,,,,,,,",
",,,,,,,,>+2+.+25247**444 ,,,,,,,",
",,,,,,,,+ >>++>524444444 ,,,,,,,",
",,,,,,,, , >++>25444444; ,,,,,,,",
",,,,,,,,,%&366+>24444<; ,,,,,,,,",
",,,,,,,,%&36669+>3###  ,,,,,,,,,",
",,,,,,,,%&&%&&69+99963,,,,,,,,,,",
",,,,,,,, %XX@@X%&36996&,,,,,,,,,",
",,,,,,,,, X@$$$@X&XX&6&,,,,,,,,,",
",,,,,,,, XX$$::@66XX663,,,,,,,,,",
",,,,,,,, XX$$::@99--&96%,,,,,,,,",
",,,,,,, %%X@$$$@96==&96%,,,,,,,,",
",,,,,,, %&33&@@%33  693%,,,,,,,,",
",,,,,,,, %&33336%%%993%,,,,,,,,,",
",,,,,,,,, XX%&666993%%,,,,,,,,,,",
",,,,,,,,, X@$$@ XXXXX,,,,,,,,,,,",
",,,,,,,,,, XXX@  XXXX,,,,,,,,,,,",
",,,,,,,,,, O==O ,,,,,,,,,,,,,,,,"
};
