/* XPM */
static char *_8856927fdfb4af5a92dc7b487d5fd19GqOyJanr3iLdkges[] = {
/* columns rows colors chars-per-pixel */
"32 32 18 1 ",
"  c black",
". c #291F14",
"X c #5C3812",
"o c #40262B",
"O c #452B2B",
"+ c #78523D",
"@ c #404545",
"# c #61666B",
"$ c #8F4D14",
"% c #A17854",
"& c #84706E",
"* c #509B66",
"= c #BF8F9E",
"- c #949CA1",
"; c #E3BFCC",
": c #C4C7D4",
"> c #FFDFEA",
", c #E8F2FA",
/* pixels */
"********************************",
"***********oo&&&&&&&oo**********",
"*********o&===;=&=;;;=&o********",
"*******o&=;>>;;;=;>>>>;;&&=&o***",
"****oo&;>>>;==;;;;========&o****",
"******o&&=;;;;>;;;>>=&&&&oo*****",
"******o&=;;=;>>;;>=;>;&&&o******",
"*****&;;===;>>>>=>;&=>;&&=&*****",
"*****;=&&&;>>>>>&;>=&=;&&==&****",
"****&=&&o=>>;>>;&=>==&==o&=&****",
"****=&oo&;>=>>>;==;=&=o=oo==o***",
"****&oo&=>;=>>>;=&;=o=&ooo&=o***",
"****o* &=>=;;>;==&=&o&=o&o &o***",
"****** &=;=;=>;=&&=o&&o&&o o****",
"*******o=;=;&;;=&&&o&=&=&o*o****",
"******* &=&=&=;=&=&&&=&=& ******",
"********o=&=&=;&&==&=&o=o*******",
"********o&o==&=&&=&&=&o=o*******",
"********.oo&=o=&o&&=&ooo@.******",
"******..OO@ooo&&o&&oo#@.OO.*****",
"*****.O++O.OOOoooooOO..O++.*****",
"*****.+++O.O+%%%%+OOOO.+++O.****",
"*****.+++.OO+%%%%%++OOO+%%+.****",
"***** OO. O+%%%%%%%%+OO+%%+.****",
"******.. .O+%+++++++OO.O++O.****",
"*********..@#:,,:--###O OOO ****",
"*********@--::,,,:::---@   *****",
"*********@-##.OO.@@----@********",
"**********  O+++O...@@@*********",
"************.+%%+.    **********",
"************.O$$$ **************",
"************* XXX **************"
};
