/* XPM */
static char *fad7f55de9e0430f830b7c0d58f846d27eXydS1IPX3MZKF0[] = {
/* columns rows colors chars-per-pixel */
"32 32 9 1 ",
"  c None",
". c black",
"X c #21110D",
"o c #171C31",
"O c #242A3D",
"+ c #414B66",
"@ c #425B9E",
"# c #677598",
"$ c #8F9AB0",
/* pixels */
"  XX ooo ooX  oooX ooX oo. ooXXo",
".O++o###O##+.O###+O###o##+.##++#",
"O###########O#####@###+###+##+##",
"+####$##++##+######$##++##+#+###",
"+##$##$#+##++##$$$##$#####++##$$",
"+#$#$O+#$###+#$###$O+#$$$$$+#$##",
"O+###OO+###OO+#####Oo#####+o+###",
"+##++#O##+++O###+++#+####++O####",
"O#++++O##+++O#+++++++##++++O+##+",
"O++++OO++++OO++++++OO+++#++OO@++",
"Oo+##+OOOOOoOOO+###OOOOOOOoOOOO#",
"O+#++#o+####oo+##++#O######+Oo##",
"O#+#+++######+#++#++########O#++",
"O+++++##++++#O++++++##+++++#++++",
"O++++o++++++OO+++++O++++++++O+++",
"#@+oO++#++O#+#+@OO++##++O###@+O+",
"+##+###+#+@##++##O###+#O###++##O",
"+#+O#++++O#+++#++O#++++O#+++#+++",
"+++Oo++++O+++++++OO+++OO+++++++O",
"+++++oOO+++++++++++oOO++++++++++",
"O####+O+###OO######+O#####+o+###",
"+#+++#O##+++O#+#+++++###+++O###+",
"O#++++O+#+++O#@+++++++++#++O+#++",
"O++++OOO+++OO++++++OO++++++OO+++",
"OO+##+OOOOOOOOo####+OOOOOOOOOOO#",
"O+#++#O#####OO+##++#O######+OO##",
"O#+#++#######+@+++++########+#++",
"O+++++##++++@O++++++##++++++O+++",
"oOOOOo++++++OoOOOOOO+++++++OoO++",
"##+o+###@Oo#####OO+###+OO#####oO",
"++#+###+#+###++##O###+#O###++##+",
"+#+O#++++O#+++#++O#++++O#+++#+++"
};
